<?xml version="1.0" encoding="utf-8"?>
<!-- Generator: Adobe Illustrator 16.0.4, SVG Export Plug-In . SVG Version: 6.00 Build 0)  -->
<!DOCTYPE svg PUBLIC "-//W3C//DTD SVG 1.1 Tiny//EN" "http://www.w3.org/Graphics/SVG/1.1/DTD/svg11-tiny.dtd">
<svg version="1.1" baseProfile="tiny" id="Layer_1" xmlns="http://www.w3.org/2000/svg" xmlns:xlink="http://www.w3.org/1999/xlink"
	 x="0px" y="0px" width="900px" height="900px" viewBox="0 0 900 900" xml:space="preserve">
<path fill="#B19F4D" d="M374.04,162.259c4.845-21.361,29.624-33.898,50.179-28.342c13.848,2.234,24.431,12.984,38.154,15.371
	c8.936-0.349,16.445-5.96,24.25-9.731c11.242-5.474,24.309-8.586,36.676-5.36c13.098,3.379,25.217,13.22,28.691,26.652
	c3.016,11.266,0.17,23.175-4.646,33.506c-7.008,15.331-19.768,26.78-31.217,38.745c-16.209,16.866-33.428,32.752-49.369,49.872
	c3.395,4.83,8.193,8.431,12.213,12.719c3.352-3.338,6.76-6.647,10.125-9.985c1.008,1.16,2.01,2.345,3.029,3.535
	c-3.322,3.183-6.588,6.408-9.924,9.574c20.395,20.19,40.346,40.837,61.162,60.609c6.969,6.728,14.258,13.432,23.203,17.433
	c11.211,5.363,24.727,6.614,36.371,1.871c10.93-4.238,19.309-14.628,21.109-26.203c1.312-11.278-6.953-20.23-13.232-28.574
	c-5.938-8.381-12.947-18.042-11.033-28.891c2.666-11.709,11.018-20.802,17.887-30.254c4.326-6.158,7.816-13.724,6.086-21.415
	c-2.807-11.493-11.154-21.963-22.549-25.815c-12.342-4.344-26.121-1.439-37.348,4.662c-8.6,4.469-15.359,11.52-22.447,17.969
	c-13.377,12.857-26.42,26.038-39.523,39.163c-1.033-1.145-2.043-2.29-3.045-3.422c16.848-16.656,33.324-33.73,51.002-49.535
	c13.207-11.085,30.406-19.406,48.055-16.992c12.66,1.801,22.84,11.549,27.949,22.896c5.207,11.101,4.412,24.156,0.152,35.422
	c-3.307,9.52-9.869,17.621-12.52,27.405c-1.887,7.373,2.455,14.254,5.623,20.594c5.266,9.159,9.426,19.199,10.121,29.848
	c1.078,14.102-5.516,28.455-16.85,36.871c-7.748,5.624-17.871,7.567-27.225,5.971c-12.9-1.908-24.836-8.273-34.775-16.555
	c-24.883-21.972-47.189-46.669-71.318-69.413c-4.775,3.489-8.461,8.196-12.689,12.274c3.309,3.307,6.615,6.628,9.955,9.939
	c-1.189,1.02-2.373,2.052-3.561,3.084c-3.156-3.279-6.312-6.546-9.408-9.869c-20.501,20.662-41.399,40.922-61.49,61.976
	c-8.237,8.557-16.152,17.995-19.446,29.65c-4.259,13.792-2.04,30.469,8.655,40.806c7.746,7.416,19.755,12.512,30.114,7.531
	c13.444-6.365,23.342-19.368,38.438-22.465c7.285-1.513,14.172,2.12,20.342,5.538c10.119,5.558,17.881,15.263,29.346,18.323
	c9.885,2.388,19.715-2.964,26.902-9.346c10.121-9.334,12.367-24.525,8.84-37.375c-2.891-11.849-10.234-21.955-18.596-30.585
	c-14.215-14.994-28.818-29.623-43.607-44.047c0.969-1.215,1.986-2.387,3.061-3.516c15.93,15.759,31.861,31.537,47.039,48.037
	c9.881,10.64,17.562,23.832,19.781,38.322c1.619,9.414-0.348,19.562-6.002,27.336c-7.908,10.489-20.789,17.327-34.029,17.066
	c-11.629,0.109-22.629-4.628-32.553-10.288c-6.328-3.128-13.154-7.524-20.523-5.745c-9.551,2.525-17.482,8.867-26.751,12.153
	c-10.108,3.741-21.46,5.161-31.888,1.81c-13.334-4.131-25.255-15.245-27.295-29.499c-2.498-18.026,6.2-35.547,17.691-48.878
	c21.946-24.208,45.835-46.546,68.562-70.004c-4.188-4.243-8.349-8.5-12.761-12.508c-3.268,3.367-6.601,6.659-9.912,9.981
	c-0.851-0.765-2.569-2.301-3.435-3.066c3.423-3.384,6.871-6.705,10.375-9.984c-20.243-20.146-40.197-40.599-60.817-60.37
	c-7.036-6.564-14.116-13.404-22.981-17.465c-12.551-6.243-28.271-7.289-40.782-0.393c-8.753,4.623-14.855,13.416-17.116,22.925
	c-2.135,11.253,5.794,20.693,12.174,28.987c6.478,8.807,14.034,19.07,11.757,30.658c-2.961,11.672-11.352,20.688-18.178,30.227
	c-4.509,6.365-7.665,14.449-5.305,22.268c3.196,10.643,10.931,20.244,21.542,24.135c12.566,4.622,26.651,1.707,38.13-4.517
	c9.716-5.229,17.326-13.366,25.268-20.833c12.37-11.743,24.196-24.042,36.398-35.967c0.768,0.769,2.333,2.305,3.114,3.086
	c-16.978,16.935-33.563,34.306-51.574,50.148c-12.439,10.275-28.328,17.952-44.788,16.78c-18.444-1.434-32.406-18.705-34.01-36.422
	c-1.229-13.233,4.021-25.982,10.584-37.178c3.084-6.438,7.651-13.628,5.037-21.001c-2.973-9.45-9.214-17.463-12.326-26.874
	c-3.463-9.813-4.511-20.788-1.272-30.812c3.938-12.286,13.558-23.315,26.415-26.457c13.934-3.237,28.441,1.367,40.35,8.641
	c9.73,5.768,17.48,14.104,25.76,21.685c18.596,17.687,36.229,36.381,54.73,54.17c1.324,1.73,2.958-0.729,4.06-1.494
	c3.264-3.171,6.381-6.508,9.701-9.633c-3.213-3.546-6.574-6.941-9.966-10.306c1.143-0.99,2.302-1.966,3.477-2.944
	c3.169,3.278,6.351,6.549,9.536,9.844c21.289-21.754,43.336-42.779,64.137-65.019c8.154-8.337,14.969-18.403,17.564-29.908
	c3.086-13.137,0.264-28.341-9.826-37.821c-7.707-7.091-19.326-12.202-29.529-7.385c-12.709,5.893-21.965,17.649-35.646,21.81
	c-8.238,3.237-16.754-0.825-23.805-4.985c-10.022-5.64-17.813-15.315-29.316-18.177c-9.719-2.249-19.284,3.142-26.389,9.312
	c-11.63,10.61-12.956,28.51-7.441,42.553c4.341,12.553,13.739,22.256,22.814,31.582c12.508,13,25.213,25.814,38.158,38.395
	c-1.23,0.976-2.46,1.954-3.675,2.931c-17.03-17.478-34.93-34.148-50.901-52.634C378.521,197.231,370.66,179.738,374.04,162.259
	 M450.827,299.164c4.159,4.021,8.21,8.184,12.427,12.177c4.02-4.19,8.125-8.309,12.359-12.317
	c-3.998-4.214-8.143-8.277-12.207-12.41C458.926,290.51,454.763,294.737,450.827,299.164"/>
<path fill="#B19F4D" d="M440.369,195.18c4.33-9.855,15.293-16.74,26.137-15.065c11.814,1.62,21.15,12.483,21.977,24.225
	c1.604,18.106-10.289,33.521-21.977,45.987c3.252,3.155,6.465,6.354,9.635,9.58c-1.033,1.032-2.064,2.051-3.086,3.084
	c-3.297-3.155-6.52-6.368-9.717-9.619c-8.922,8.53-17.552,17.381-26.262,26.152c-0.964-1.258-1.928-2.502-2.862-3.746
	c8.487-8.446,17.159-16.753,25.382-25.48c-6.029-7.507-12.984-14.462-17.035-23.356C437.714,217.251,435.568,205.301,440.369,195.18
	 M452.729,196.198c-6.342,4.134-7.92,12.453-7.025,19.491c1.394,12.342,9.077,22.855,17.615,31.413
	c9.75-10.806,19.354-24.516,17.473-39.819C479.236,194.621,462.543,190.084,452.729,196.198"/>
<path fill="#B19F4D" d="M482.758,272.82c1.074-1.047,2.164-2.097,3.268-3.128c8.557,8.46,16.822,17.24,25.633,25.451
	c2.357-0.923,3.99-3.056,5.934-4.634c9.549-8.545,21.123-15.819,34.15-17.006c10.402-1.019,21.414,3.828,26.873,12.9
	c4.734,7.344,4.859,17.354,0.209,24.767c-5.082,8.88-15.564,13.85-25.656,13.11c-16.281-0.544-29.895-11.196-41.121-22.043
	c-3.266,3.016-6.199,6.377-9.576,9.243c-1.369-0.616-2.639-1.372-3.822-2.277c3.318-3.434,6.711-6.8,10.145-10.137
	C500.334,290.102,491.416,281.587,482.758,272.82 M541.326,282.353c-9.871,3.02-19.24,8.84-25.801,16.812
	c7.355,7.501,16.57,13.362,26.639,16.435c7.512,2.247,17.215,1.995,22.52-4.61c5.43-7.696,5.682-20.286-2.387-26.304
	C556.305,280.303,548.195,280.974,541.326,282.353"/>
<path fill="#B19F4D" d="M345.419,291.177c3.979-11.783,16.891-18.86,28.998-17.674c15.553,1.3,28.467,11.266,39.481,21.542
	c4.231-1.676,6.925-6.352,10.471-9.297c0.979,1.171,1.97,2.359,2.988,3.546c-3.279,3.171-6.533,6.354-9.843,9.492
	c8.337,8.893,17.146,17.34,25.788,25.958c-1.063,1.075-2.12,2.162-3.171,3.237c-8.458-8.63-17.131-17.047-25.562-25.703
	c-9.662,8.849-20.188,17.673-33.199,20.914c-9.216,2.261-19.785,1.437-27.367-4.734C345.949,312.258,341.749,300.91,345.419,291.177
	 M370.618,281.533c-11.782,2.065-15.704,17.23-10.777,26.818c3.491,6.619,11.729,8.894,18.722,8.238
	c12.844-1.105,24.044-8.849,32.77-17.899C400.246,288.903,386.216,278.946,370.618,281.533"/>
<path fill="#B19F4D" d="M462.889,344.511c9.037-8.25,17.412-17.158,26.082-25.785c1.188,0.976,2.359,1.969,3.562,2.959
	c-8.744,8.727-17.693,17.23-26.066,26.291c9.311,9.02,17.49,19.853,20.939,32.526c2.861,10.428,1.006,22.756-7.221,30.336
	c-7.285,7.415-19.557,9.401-28.591,4.075c-10.206-5.516-15.33-17.838-13.667-29.079c2.077-14.94,11.545-27.54,21.918-37.943
	c-3.25-3.504-6.617-6.912-9.969-10.318c1.103-0.979,2.25-1.953,3.379-2.916C456.439,337.96,459.682,341.215,462.889,344.511
	 M445.926,391.7c2.18,11.74,17.591,15.512,27.056,10.301c6.535-3.645,8.404-11.808,7.766-18.749
	c-0.908-12.734-8.992-23.342-17.342-32.362C452.893,361.457,443.217,376.123,445.926,391.7"/>
<text transform="matrix(1 0 0 1 12.1216 585.3359)" font-family="'BaskOldFace'" font-size="122.0927">G</text>
<text transform="matrix(1 0 0 1 108.6313 585.3359)" font-family="'BaskOldFace'" font-size="122.0927">O</text>
<text transform="matrix(1 0 0 1 212.4146 585.3359)" font-family="'BaskOldFace'" font-size="122.0927">L</text>
<text transform="matrix(1 0 0 1 291.7583 585.3359)" font-family="'BaskOldFace'" font-size="122.0927">D</text>
<text transform="matrix(1 0 0 1 390.894 585.3359)" font-family="'BaskOldFace'" font-size="122.0927">A</text>
<text transform="matrix(1 0 0 1 480.3105 585.3359)" font-family="'BaskOldFace'" font-size="122.0927">D</text>
<text transform="matrix(1 0 0 1 579.4453 585.3359)" font-family="'BaskOldFace'" font-size="122.0927">O</text>
<text transform="matrix(1 0 0 1 683.2285 585.3359)" font-family="'BaskOldFace'" font-size="122.0927">R</text>
<text transform="matrix(1 0 0 1 767.041 585.3359)" font-family="'BaskOldFace'" font-size="122.0927">N</text>
<text transform="matrix(-0.0044 -1 1.2561 -0.0055 884.875 585.3379)" font-family="'BaskOldFace'" font-size="38.622">.</text>
<g>
	<text transform="matrix(-0.0044 -1 1.2561 -0.0055 884.6543 535.208)" font-family="'BaskOldFace'" font-size="38.622">m</text>
	<text transform="matrix(-0.0044 -1 1.2561 -0.0055 884.7461 556.7578)" font-family="'BaskOldFace'" font-size="38.622">o</text>
	<text transform="matrix(-0.0044 -1 1.2561 -0.0055 884.8242 574.3682)" font-family="'BaskOldFace'" font-size="38.622">c</text>
</g>
</svg>
