<?xml version="1.0" encoding="utf-8"?>
<!-- Generator: Adobe Illustrator 16.0.4, SVG Export Plug-In . SVG Version: 6.00 Build 0)  -->
<!DOCTYPE svg PUBLIC "-//W3C//DTD SVG 1.1 Tiny//EN" "http://www.w3.org/Graphics/SVG/1.1/DTD/svg11-tiny.dtd">
<svg version="1.1" baseProfile="tiny" id="Layer_1" xmlns="http://www.w3.org/2000/svg" xmlns:xlink="http://www.w3.org/1999/xlink"
	 x="0px" y="0px" width="400px" height="300px" viewBox="0 0 400 300" xml:space="preserve">
<path fill="#9A8A43" d="M202.357,185.168c6.669,6.462,12.527,14.22,15.003,23.301c2.052,7.47,0.72,16.299-5.175,21.726
	c-3.223,3.277-7.802,5.074-12.356,5.074c-2.826,0-5.641-0.69-8.119-2.148c-7.308-3.951-10.98-12.78-9.792-20.835
	c1.494-10.692,8.271-19.729,15.705-27.181c-2.331-2.502-4.743-4.949-7.146-7.389c0.792-0.693,1.611-1.396,2.421-2.088
	c2.277,2.367,4.599,4.698,6.903,7.064c6.471-5.912,12.464-12.294,18.675-18.477c0.854,0.702,1.691,1.413,2.556,2.124
	C214.769,172.586,208.36,178.679,202.357,185.168 M207.028,223.868c4.68-2.61,6.021-8.46,5.562-13.429
	c-0.647-9.116-6.443-16.722-12.42-23.184c-7.533,7.569-14.463,18.072-12.519,29.232c1.098,5.932,6.909,9.023,12.618,9.023
	C202.657,225.512,205.028,224.97,207.028,223.868"/>
<path fill="#9A8A43" d="M167.302,149.941c5.967,6.363,12.276,12.42,18.468,18.585c-0.765,0.774-1.521,1.548-2.268,2.322
	c-6.066-6.183-12.276-12.213-18.315-18.414c-6.921,6.345-14.454,12.663-23.778,14.985c-2.157,0.529-4.418,0.822-6.674,0.822
	c-4.645,0-9.269-1.241-12.928-4.216c-5.769-4.437-8.775-12.563-6.147-19.539c2.646-7.828,10.787-12.754,18.874-12.754
	c0.634,0,1.268,0.03,1.898,0.091c11.133,0.936,20.385,8.073,28.278,15.435c3.033-1.197,4.959-4.554,7.497-6.66
	c0.702,0.837,1.413,1.692,2.142,2.538C172,145.406,169.669,147.691,167.302,149.941 M139.402,162.686
	c9.198-0.783,17.217-6.336,23.463-12.816c-7.074-6.248-15.821-12.589-25.553-12.589c-1.188,0-2.39,0.094-3.607,0.295
	c-8.433,1.485-11.25,12.339-7.713,19.215c2.219,4.213,7.14,5.974,11.73,5.974C138.289,162.765,138.851,162.737,139.402,162.686"/>
<path fill="#9A8A43" d="M282.69,141.067c3.384,5.265,3.475,12.43,0.145,17.739c-3.401,5.952-10.188,9.446-16.973,9.446
	c-0.469,0-0.938-0.017-1.405-0.051c-11.655-0.396-21.411-8.027-29.448-15.795c-2.34,2.16-4.438,4.572-6.858,6.624
	c-0.98-0.44-1.89-0.98-2.745-1.629c2.386-2.466,4.816-4.878,7.272-7.263c-6.057-6.417-12.447-12.519-18.648-18.801
	c0.766-0.747,1.549-1.503,2.341-2.241c6.129,6.057,12.051,12.348,18.359,18.234c1.692-0.666,2.862-2.196,4.248-3.321
	c6.84-6.12,15.129-11.331,24.462-12.186c0.654-0.064,1.312-0.095,1.971-0.095C272.246,131.729,279.12,135.14,282.69,141.067
	 M272.71,158.681c3.888-5.508,4.067-14.535-1.71-18.846c-2.476-1.805-5.452-2.411-8.474-2.411c-2.22,0-4.463,0.327-6.548,0.746
	c-7.074,2.16-13.779,6.327-18.477,12.042c5.265,5.363,11.871,9.566,19.08,11.763c1.899,0.57,3.998,0.916,6.084,0.916
	C266.479,162.891,270.255,161.734,272.71,158.681"/>
<path fill="#9A8A43" d="M202.394,115.229c2.321,2.259,4.626,4.554,6.894,6.858c-0.738,0.738-1.476,1.476-2.205,2.214
	c-2.367-2.259-4.671-4.563-6.966-6.894c-6.39,6.111-12.564,12.456-18.81,18.729c-0.684-0.9-1.377-1.791-2.043-2.673
	c6.075-6.057,12.285-12.006,18.18-18.252c-4.32-5.382-9.306-10.359-12.204-16.731c-3.474-6.939-5.013-15.498-1.566-22.752
	c2.783-6.343,9.408-10.97,16.367-10.97c0.782,0,1.568,0.058,2.354,0.179c8.46,1.161,15.146,8.946,15.731,17.352
	C219.277,95.258,210.763,106.301,202.394,115.229 M200.107,112.916c6.983-7.74,13.859-17.559,12.51-28.521
	c-0.778-6.367-6.914-9.865-12.933-9.865c-2.548,0-5.073,0.626-7.164,1.927c-4.545,2.961-5.67,8.919-5.031,13.959
	C188.488,99.263,193.987,106.787,200.107,112.916"/>
<path fill="#9A8A43" d="M311.689,162.083c3.771,6.552,6.749,13.743,7.254,21.375c0.765,10.098-3.951,20.385-12.078,26.415
	c-4.301,3.121-9.631,4.659-14.93,4.659c-1.533,0-3.062-0.129-4.564-0.385c-9.243-1.368-17.793-5.931-24.912-11.861
	c-17.82-15.741-33.804-33.427-51.084-49.717c-3.42,2.502-6.057,5.868-9.09,8.793c2.376,2.367,4.743,4.743,7.137,7.119
	c-0.854,0.729-1.701,1.467-2.556,2.205c-2.259-2.349-4.519-4.688-6.741-7.064c-14.679,14.796-29.646,29.304-44.037,44.388
	c-5.895,6.129-11.565,12.888-13.932,21.24c-3.051,9.882-1.458,21.815,6.201,29.231c4.017,3.841,9.626,6.812,15.232,6.812
	c2.144,0,4.287-0.435,6.341-1.42c9.63-4.563,16.722-13.878,27.531-16.093c0.835-0.173,1.663-0.251,2.483-0.251
	c4.302,0,8.376,2.164,12.088,4.221c7.245,3.978,12.807,10.926,21.015,13.122c1.176,0.283,2.354,0.415,3.52,0.415
	c5.851,0,11.457-3.3,15.75-7.111c7.254-6.688,8.864-17.568,6.336-26.766c-2.07-8.487-7.335-15.732-13.32-21.915
	c-10.179-10.737-20.646-21.214-31.229-31.546c0.684-0.872,1.412-1.71,2.187-2.52c11.412,11.286,22.824,22.59,33.686,34.407
	c7.085,7.623,12.583,17.073,14.177,27.45c1.161,6.74-0.252,14.013-4.303,19.584c-5.556,7.365-14.544,12.227-23.842,12.227
	c-9.02-0.004-16.812-3.359-23.849-7.376c-3.804-1.883-7.869-4.408-12.2-4.408c-0.823,0-1.655,0.091-2.497,0.295
	c-6.84,1.81-12.519,6.354-19.161,8.703c-4.42,1.631-9.169,2.649-13.896,2.649c-3.022,0-6.033-0.416-8.946-1.354
	c-9.549-2.961-18.09-10.917-19.548-21.132c-1.791-12.906,4.437-25.461,12.672-35.01c15.714-17.334,32.823-33.336,49.104-50.139
	c-2.997-3.042-5.976-6.084-9.135-8.955c-2.34,2.402-4.734,4.77-7.101,7.146c-0.612-0.549-1.845-1.646-2.457-2.196
	c2.448-2.421,4.914-4.806,7.425-7.154c-14.499-14.427-28.791-29.079-43.56-43.236c-5.04-4.698-10.107-9.603-16.461-12.51
	c-4.739-2.358-10.109-3.68-15.438-3.68c-4.782,0-9.532,1.064-13.767,3.401c-6.273,3.303-10.647,9.603-12.267,16.416
	c-1.53,8.064,4.158,14.823,8.721,20.763c4.644,6.309,10.053,13.662,8.424,21.959c-2.124,8.361-8.127,14.814-13.023,21.646
	c-3.231,4.562-5.49,10.35-3.798,15.957c2.286,7.614,7.83,14.499,15.426,17.289c3.046,1.118,6.219,1.618,9.401,1.618
	c6.22,0,12.478-1.911,17.914-4.858c6.957-3.744,12.411-9.576,18.099-14.922c8.856-8.415,17.334-17.217,26.073-25.758
	c0.549,0.549,1.665,1.646,2.223,2.205c-12.159,12.132-24.039,24.569-36.936,35.919c-8.307,6.863-18.758,12.107-29.689,12.107
	c-0.794,0-1.589-0.026-2.387-0.084c-13.212-1.035-23.211-13.4-24.363-26.091c-0.882-9.477,2.88-18.612,7.578-26.631
	c2.214-4.608,5.481-9.756,3.609-15.039c-2.124-6.768-6.597-12.51-8.829-19.251c-2.475-7.029-3.231-14.886-0.909-22.068
	c2.817-8.802,9.711-16.704,18.918-18.954c2.221-0.515,4.463-0.752,6.7-0.752c7.816,0,15.573,2.893,22.199,6.944
	c6.975,4.131,12.519,10.098,18.45,15.534c13.32,12.663,25.956,26.055,39.204,38.799c0.237,0.311,0.488,0.434,0.744,0.434
	c0.764,0,1.569-1.094,2.163-1.505c2.34-2.268,4.572-4.662,6.948-6.903c-2.295-2.538-4.707-4.968-7.137-7.38
	c0.819-0.711,1.647-1.404,2.493-2.106c2.268,2.349,4.545,4.689,6.831,7.047c15.246-15.579,31.041-30.636,45.936-46.566
	c5.841-5.976,10.719-13.185,12.582-21.42c2.205-9.414,0.188-20.304-7.038-27.09c-4.021-3.7-9.521-6.643-15.032-6.643
	c-2.062,0-4.128,0.412-6.118,1.351c-9.099,4.221-15.731,12.636-25.532,15.615c-1.498,0.589-3.01,0.842-4.513,0.842
	c-4.418,0-8.766-2.183-12.534-4.406c-7.182-4.041-12.762-10.971-21.006-13.023c-1.102-0.255-2.203-0.373-3.293-0.373
	c-5.791,0-11.32,3.323-15.607,7.042c-8.325,7.605-9.279,20.421-5.328,30.483c3.114,8.991,9.837,15.939,16.344,22.617
	c8.955,9.315,18.054,18.495,27.324,27.504c-0.882,0.702-1.755,1.395-2.628,2.097c-12.204-12.519-25.02-24.462-36.459-37.701
	c-7.704-9.612-13.329-22.14-10.908-34.659c2.91-12.847,15.89-21.239,28.694-21.24c2.445,0,4.882,0.306,7.243,0.945
	c9.918,1.593,17.496,9.297,27.333,11.007c6.399-0.252,11.781-4.275,17.37-6.975c5.802-2.823,12.287-4.771,18.775-4.771
	c2.512,0,5.021,0.292,7.496,0.937c9.378,2.421,18.054,9.468,20.547,19.089c2.159,8.073,0.117,16.596-3.33,24.003
	c-5.021,10.98-14.157,19.179-22.365,27.747c-11.609,12.078-23.939,23.463-35.352,35.721c2.43,3.456,5.868,6.039,8.748,9.108
	c2.394-2.394,4.842-4.761,7.245-7.146c0.72,0.828,1.439,1.674,2.169,2.529c-2.376,2.277-4.716,4.59-7.11,6.858
	c14.616,14.463,28.908,29.25,43.812,43.408c4.994,4.823,10.215,9.62,16.623,12.491c4.626,2.214,9.802,3.452,14.951,3.452
	c3.788,0,7.562-0.669,11.095-2.111c7.83-3.042,13.833-10.484,15.12-18.773c0.943-8.073-4.978-14.49-9.478-20.466
	c-4.248-6.003-9.27-12.924-7.903-20.691c1.909-8.388,7.895-14.904,12.816-21.672c3.097-4.41,5.599-9.828,4.357-15.336
	c-2.008-8.235-7.992-15.732-16.146-18.495c-2.919-1.024-5.948-1.485-8.986-1.485c-6.172,0-12.38,1.899-17.771,4.824
	c-6.156,3.204-10.998,8.253-16.074,12.87c-9.585,9.216-18.928,18.657-28.313,28.053c-0.738-0.819-1.458-1.638-2.179-2.448
	c12.069-11.934,23.868-24.165,36.531-35.478c8.347-7.013,18.923-12.477,29.978-12.477c1.473,0,2.952,0.097,4.438,0.3
	c9.072,1.296,16.362,8.271,20.025,16.407c3.726,7.947,3.158,17.298,0.107,25.371c-2.367,6.813-7.074,12.618-8.974,19.629
	C306.307,152.605,309.421,157.538,311.689,162.083 M200.062,158.933c2.88-3.006,5.813-5.958,8.847-8.82
	c-2.862-3.023-5.832-5.931-8.739-8.892c-3.213,2.79-6.192,5.814-9.009,8.991C194.14,153.092,197.038,156.07,200.062,158.933"/>
</svg>
